<svg width="32" height="32" viewBox="0 0 32 32" fill="none" xmlns="http://www.w3.org/2000/svg">
<path d="M5.33334 16C5.33334 15.2636 5.9303 14.6667 6.66668 14.6667H20C20.7364 14.6667 21.3333 15.2636 21.3333 16V16C21.3333 16.7364 20.7364 17.3333 20 17.3333H6.66668C5.9303 17.3333 5.33334 16.7364 5.33334 16V16ZM5.33334 9.33333C5.33334 8.59695 5.9303 8 6.66668 8H25.3333C26.0697 8 26.6667 8.59695 26.6667 9.33333V9.33333C26.6667 10.0697 26.0697 10.6667 25.3333 10.6667H6.66668C5.9303 10.6667 5.33334 10.0697 5.33334 9.33333V9.33333ZM5.33334 22.6667C5.33334 23.403 5.9303 24 6.66668 24H13.6467C14.3831 24 14.98 23.403 14.98 22.6667V22.6667C14.98 21.9303 14.3831 21.3333 13.6467 21.3333H6.66668C5.9303 21.3333 5.33334 21.9303 5.33334 22.6667V22.6667Z" fill="white"/>
</svg>
